<?xml version="1.0" encoding="utf-8"?>
<!-- Generator: Adobe Illustrator 24.3.0, SVG Export Plug-In . SVG Version: 6.00 Build 0)  -->
<svg version="1.1" xmlns="http://www.w3.org/2000/svg" xmlns:xlink="http://www.w3.org/1999/xlink" x="0px" y="0px"
	 viewBox="0 0 150 25.95" style="enable-background:new 0 0 150 25.95;" xml:space="preserve">
<style type="text/css">
	.st0{fill:#FFFFFF;}
</style>
<g id="Layer_1">
</g>
<g id="logo">
	<g>
		<path class="st0" d="M17.26,22.82c-0.11,0.07-0.21,0.12-0.29,0.16c-0.09,0.04-0.16,0.09-0.23,0.13c-0.85,0.48-1.77,0.84-2.77,1.09
			c-1,0.25-2.01,0.38-3.03,0.38c-1.57,0-3.01-0.28-4.34-0.85c-1.33-0.57-2.48-1.34-3.46-2.33c-0.98-0.99-1.75-2.16-2.3-3.52
			C0.28,16.52,0,15.04,0,13.46c0-1.61,0.27-3.07,0.82-4.39c0.54-1.32,1.31-2.44,2.3-3.38c0.99-0.94,2.17-1.66,3.56-2.17
			c1.38-0.51,2.92-0.77,4.62-0.77c0.43,0,0.85,0.01,1.26,0.03c0.4,0.02,0.81,0.07,1.22,0.13c0.37,0.07,0.7,0.13,1,0.2
			c0.29,0.07,0.58,0.14,0.85,0.21c0.27,0.08,0.55,0.17,0.85,0.29c0.29,0.12,0.64,0.27,1.03,0.44v3.36c-0.3-0.35-0.55-0.61-0.73-0.78
			c-0.19-0.17-0.43-0.36-0.73-0.55c-1.35-0.91-3.03-1.37-5.06-1.37c-1.33,0-2.52,0.21-3.59,0.62c-1.07,0.41-1.97,1-2.71,1.76
			c-0.74,0.76-1.31,1.7-1.7,2.81c-0.39,1.11-0.59,2.35-0.59,3.72c0,1.35,0.2,2.58,0.6,3.69c0.4,1.11,0.97,2.06,1.7,2.84
			c0.73,0.78,1.6,1.39,2.63,1.83c1.02,0.44,2.16,0.65,3.43,0.65c1.35,0,2.61-0.26,3.79-0.77c1.17-0.51,2.09-1.22,2.74-2.14V22.82z"
			/>
		<path class="st0" d="M20.58,24.16c0.07-0.35,0.13-0.64,0.17-0.86c0.04-0.22,0.08-0.59,0.13-1.09c0.1-0.97,0.17-1.8,0.22-2.47
			c0.05-0.55,0.09-1.27,0.11-2.15c0.02-0.89,0.04-1.69,0.04-2.42V12.1V9.14c0-1.42-0.03-2.56-0.09-3.41
			c-0.06-0.85-0.17-1.61-0.32-2.28c-0.15-0.7-0.37-1.36-0.67-1.99c-0.2-0.35-0.37-0.62-0.51-0.81C19.53,0.47,19.28,0.25,18.93,0
			h4.79c-0.07,0.37-0.13,0.67-0.15,0.88c-0.03,0.21-0.06,0.46-0.11,0.73c-0.05,0.28-0.09,0.58-0.11,0.92
			c-0.03,0.34-0.06,0.71-0.11,1.1c-0.07,0.92-0.13,1.78-0.15,2.57c-0.03,0.79-0.04,1.74-0.04,2.87v1.69
			c0.62-1.2,1.52-2.16,2.68-2.88c1.16-0.72,2.42-1.09,3.76-1.09c0.87,0,1.68,0.13,2.42,0.39c0.74,0.26,1.37,0.63,1.89,1.1
			c0.52,0.47,0.94,1.04,1.24,1.7c0.3,0.66,0.45,1.39,0.45,2.19c0,0.25-0.01,0.57-0.02,0.97c-0.01,0.4-0.03,0.87-0.06,1.42
			c-0.03,0.22-0.04,0.45-0.04,0.67c0,0.22,0,0.45,0,0.67c0,2.32,0.18,4.13,0.54,5.41c0.36,1.29,0.94,2.23,1.74,2.83H32.9
			c0.25-1.2,0.43-2.43,0.54-3.71c0.11-1.27,0.17-2.73,0.17-4.38c0-0.25-0.01-0.49-0.02-0.73c-0.01-0.24-0.02-0.47-0.02-0.69
			c-0.05-1.25-0.17-2.2-0.36-2.85c-0.19-0.65-0.54-1.22-1.07-1.72c-0.87-0.82-1.99-1.24-3.33-1.24c-0.8,0-1.55,0.15-2.25,0.45
			c-0.7,0.3-1.3,0.74-1.8,1.31c-0.65,0.67-1.1,1.5-1.35,2.49c-0.25,0.99-0.37,2.33-0.37,4.03c0,1.12,0.06,2.07,0.17,2.83
			c0.11,0.76,0.31,1.5,0.58,2.23c0.2,0.52,0.39,0.91,0.58,1.16c0.19,0.25,0.49,0.52,0.92,0.82H20.58z"/>
		<path class="st0" d="M40.92,23.86c0.07-0.65,0.16-1.19,0.24-1.63c0.09-0.44,0.16-1,0.21-1.7c0.05-0.55,0.09-1.07,0.11-1.57
			c0.02-0.5,0.04-0.97,0.04-1.42v-1.54v-1.2c0-3.8-0.75-6.28-2.25-7.45h4.72l-0.07,0.34c-0.13,0.57-0.22,1.1-0.28,1.59
			c-0.06,0.49-0.12,1.06-0.17,1.7c-0.05,0.75-0.09,1.49-0.11,2.23c-0.03,0.74-0.04,1.65-0.04,2.75c0,0.62,0.01,1.16,0.02,1.59
			c0.01,0.44,0.03,0.84,0.06,1.2c0.02,0.36,0.07,0.71,0.13,1.03c0.06,0.32,0.13,0.69,0.21,1.09c0.15,0.67,0.41,1.35,0.79,2.02
			c0.17,0.3,0.33,0.53,0.47,0.69c0.14,0.16,0.36,0.36,0.66,0.58h-4.76L40.92,23.86z M42.34,0c0.5,0,0.92,0.17,1.27,0.51
			c0.35,0.34,0.52,0.76,0.52,1.25c0,0.5-0.18,0.92-0.52,1.27c-0.35,0.35-0.77,0.52-1.27,0.52c-0.5,0-0.92-0.17-1.27-0.52
			c-0.35-0.35-0.52-0.77-0.52-1.27c0-0.5,0.17-0.92,0.52-1.25C41.42,0.17,41.84,0,42.34,0z"/>
		<path class="st0" d="M49.2,23.9c0.05-0.42,0.09-0.79,0.13-1.09c0.04-0.3,0.07-0.58,0.11-0.84c0.04-0.26,0.07-0.51,0.09-0.75
			c0.02-0.24,0.05-0.51,0.07-0.81c0.05-0.57,0.09-1.19,0.13-1.84c0.04-0.65,0.06-1.34,0.06-2.06V9.06c0-0.6,0-1.09,0-1.48
			c0-0.39-0.01-0.74-0.02-1.05c-0.01-0.31-0.03-0.61-0.06-0.88c-0.03-0.27-0.05-0.59-0.07-0.94c-0.13-1.1-0.37-2.05-0.73-2.87
			c-0.36-0.81-0.83-1.43-1.4-1.85h4.76c-0.13,0.57-0.22,1.17-0.28,1.8c-0.06,0.62-0.12,1.4-0.17,2.32c-0.07,1.15-0.13,2.35-0.17,3.6
			c-0.04,1.25-0.06,2.78-0.06,4.61c0,1.25,0.01,2.28,0.02,3.09c0.01,0.81,0.03,1.5,0.06,2.06c0.02,0.56,0.06,1.06,0.09,1.48
			c0.04,0.42,0.09,0.86,0.17,1.31c0.12,0.8,0.36,1.54,0.69,2.21s0.75,1.24,1.25,1.69h-4.72L49.2,23.9z"/>
		<path class="st0" d="M70.13,20.6c-0.62,1.25-1.52,2.24-2.7,2.96c-1.17,0.72-2.46,1.09-3.86,1.09c-1.1,0-2.11-0.22-3.03-0.66
			c-0.92-0.44-1.72-1.04-2.4-1.82c-0.67-0.77-1.2-1.7-1.57-2.77c-0.37-1.07-0.56-2.25-0.56-3.52c0-1.32,0.2-2.54,0.6-3.65
			c0.4-1.11,0.96-2.07,1.67-2.87c0.71-0.8,1.56-1.42,2.55-1.87c0.99-0.45,2.07-0.67,3.24-0.67c1.77,0,3.27,0.51,4.49,1.54
			c0.32,0.28,0.57,0.52,0.75,0.73c0.17,0.21,0.41,0.56,0.71,1.03V7.68c0-0.95-0.04-1.75-0.13-2.4c-0.09-0.65-0.19-1.26-0.32-1.84
			C69.17,1.85,68.5,0.7,67.55,0h4.87l-0.04,0.34c-0.05,0.45-0.11,0.88-0.17,1.29c-0.06,0.41-0.12,0.79-0.17,1.14
			c-0.05,0.75-0.1,1.74-0.15,2.98c-0.05,1.24-0.07,2.55-0.07,3.95v3.67c0,1.17,0,2.11,0,2.81c0,0.7,0.01,1.26,0.02,1.69
			c0.01,0.42,0.04,0.79,0.07,1.09c0.04,0.3,0.08,0.65,0.13,1.05c0.3,1.92,1,3.31,2.1,4.16h-4.01V20.6z M70.02,15.47
			c0-2.03-0.49-3.65-1.48-4.86c-0.99-1.2-2.32-1.81-3.99-1.81c-0.9,0-1.72,0.18-2.45,0.53c-0.74,0.35-1.37,0.84-1.91,1.47
			c-0.54,0.63-0.95,1.39-1.24,2.28c-0.29,0.89-0.43,1.88-0.43,2.96c0,2.03,0.5,3.65,1.5,4.84c1,1.19,2.35,1.79,4.05,1.79
			c0.9,0,1.71-0.18,2.43-0.53c0.72-0.35,1.35-0.84,1.87-1.47c0.52-0.63,0.93-1.38,1.22-2.26C69.88,17.53,70.02,16.55,70.02,15.47z"
			/>
		<path class="st0" d="M99.33,20c0,0.65-0.62,1.67-0.77,1.96c-0.94,1.75-2.79,2.55-5.18,2.55c-0.36,0-1.39-0.02-1.78-0.05
			c-0.31-0.02-1.82,0.06-2.31-0.48c-0.56-0.61-0.86-1.51-1.37-2.19c-2.56-3.39-3.26-5.83-3.26-8.97c0-1.67,0.29-3.28,0.84-4.7
			c0.87-2.27,5.62-5.5,7.58-5.5c0.86,0,2.11,0.49,2.84,0.76c0.83,0.3,2.07,0.61,2.79,1.57l-1.57,1.57l-1.9-0.68
			c-0.59-0.22-1.63-0.93-2.17-0.93c-1.78,0-5.27,2.92-5.75,4.16c-0.5,1.3-0.71,2.4-0.71,3.76c0,2.7,0.54,4.79,3.01,8.02
			c0.89,1.17,0.65,1.21,1.11,1.71c-0.33-0.72-0.24-0.46,1.01-0.37c0.34,0.03,1.34,0.04,1.62,0.04c1.67,0,3.07-0.45,3.46-1.17
			c0.51-0.94,0.54-1.25,0.54-0.73L99.33,20z"/>
		<path class="st0" d="M115.2,8.59c1.12,1.22,1.83,3.46,1.83,5.83c0,2.53-0.4,4.24-1.39,5.87c-0.45,0.73-1.32,2.93-1.99,3.62
			c-0.7,0.73-0.96,0.99-1.73,0.99c-1.11,0-2.25-1.05-3.09-2.77h0.02l1.48-1.15h0.1c0.34,0.71,1.04,1.29,1.49,1.29
			c0.23,0,0.33-0.05,0.41-0.16c0.63-0.95,1.17-2.12,1.74-3.13c0.98-1.69,1.18-2.73,1.18-4.55c0-1.8-0.45-3.17-1.36-4.09
			c-0.16-0.16-0.57-1.02-1.8-1.02c-0.22,0-3.52,4.96-5.31,8.04c-0.45,0.77-0.82,1.45-1.19,2.11c-0.06,0.11-0.16,0.28-0.28,0.5
			c-0.07,0.37-0.14,0.75-0.21,1.11c-0.14,0.75-0.23,1.28-0.3,1.75c-0.49,3.57-1.79,4.08-2.83,1.52c-0.53-1.3,0.05-2.32,1.69-5.48
			c0.24-1.25,0.45-2.5,0.71-3.74c0.72-3.48,0.98-4.45,1.71-7.78c0.27-1.23,0.44-2.47,0.7-3.66c-0.23-0.02-0.49-0.03-0.77-0.03
			c-0.82,0-1.67,0.1-2.5,0.1h-0.07V1.11h0.07c0.78,0,1.64-0.1,2.5-0.1c0.53,0,0.97,0.03,1.43,0.1c0.89,0.11,1.43,1.5,1.14,2.83
			c-0.29,1.37-0.49,2.7-0.76,3.99c-0.63,3.04-0.95,4.21-1.38,6.14c3.11-4.94,4.97-7.47,5.81-7.33
			C114.09,7.01,114.86,8.22,115.2,8.59L115.2,8.59z"/>
		<path class="st0" d="M123.57,9.77c0.1,0.01,0.11,0-0.01,0.04c-0.14,0.5-0.32,1.1-0.53,1.83c-1.03,3.6-1.15,4.34-1.92,7.82
			c-0.15,0.67-0.34,1.31-0.48,1.92c0.79-0.36,1.49-0.65,2.03-0.99l0.88,2.22c-1.23,0.78-2.24,1.14-2.83,1.43
			c0.02-0.01-1.9,1.62-1.9-1.4c0-1.5,0.52-2.97,0.69-3.75c0.84-3.79,0.99-4.63,1.95-7.97c0.03-0.12,0.06-0.23,0.09-0.35
			c-0.75,0.25-1.27,0.34-1.9,0.34V8.27c0.81,0,1.31-0.12,2.54-0.63c1.06-0.44,1.17-0.63,1.58-0.26C124.11,7.7,124,8.26,123.57,9.77z
			 M125.7,0.74v3.19h-0.07c-0.93,0-1.22,0.42-2.15,0.89h-0.09l-0.9-2.84h0.03c0.99-0.5,1.8-1.23,3.11-1.23H125.7z"/>
		<path class="st0" d="M132.94,21.29h-0.04c-0.93,0.34-2.63,3.22-5.31,3.22c-0.27,0-0.49-0.02-0.82-0.07
			c-0.58-0.09-0.79-0.69-0.79-2.09c0-0.25,0.01-0.58,0.03-0.78c0.2-1.97,0.65-3.77,0.89-5.44c0.58-4.14,1.33-6.36,2.38-9.87
			c0.21-0.7,0.37-1.27,0.51-1.73c-0.86,0.47-1.39,0.65-1.86,0.65h-0.07V2.56h0.07c0.38,0,0.88-0.21,1.71-0.72
			c0.44-0.27,0.74-0.49,0.96-0.58c1.22-0.52,1.59-0.96,1.65-1.04c-0.05,0.09-0.34,0.66-0.23,2.05c0.1,1.22-0.82,4.06-1.03,4.76
			c-1.16,3.87-1.83,5.93-2.32,9.48c-0.27,1.92-0.71,3.71-0.88,5.34l0,0.02c2.34-0.1,2.03-2.15,4.51-3.06h0.09L132.94,21.29z"/>
		<path class="st0" d="M150,19.6c-1.05,1.09-4.25,5.04-4.49,5.04c-0.88,0.1-1.39-0.81-1.39-2.57c0-1.08,0.2-2.23,0.23-2.54
			c0.12-1.1,0.25-2.15,0.38-3.16c-0.46,0.87-1.01,1.7-1.08,1.84c-1.05,2.11-2.21,5.2-4,6.89h-0.04h-0.07
			c-0.62,0-1.12-1.05-1.31-1.38c-0.65-1.21-1.29-2.38-1.93-3.66h-0.02c-0.63-1.15-0.96-2.66-0.96-4.19c0-1.37,0.31-2.88,0.86-4.09
			c0.47-1.04,1.12-1.71,1.65-2.44h0.02c0.81-1.17,1.35-1.78,1.96-2.21c0.12-0.12,0.29-0.16,0.57-0.16c1.32,0,4.05,1.68,4.75,1.68
			h0.07v2.64h-0.07c-0.98,0-3.62-1.66-4.72-1.68c-0.51,0.39-0.68,0.63-1.32,1.55c-0.75,1.01-1.16,1.41-1.31,1.75
			c-0.51,1.12-0.69,1.92-0.69,2.97c0,1.03,0.16,1.71,0.55,2.54c0.37,0.77,1.17,2.22,1.88,3.55c1.11-1.58,1.75-3.33,2.65-5.16
			c0.97-1.94,1.54-2.72,1.54-2.14h1.25c0.45-2.96,1.01-5.73,1.88-9.03c0.08-0.3,0.38-1.31,0.66-2.17h-2.64
			c-0.04,0-0.69,0.35-0.68-0.53c0.18-0.28-1.42-1.7,0.67-2.11c1.01-0.2,2.15,0,3.14,0h0.03h0.06l0.3,0.66h-0.04
			c1.72,0.44,1.17,1.69,0.24,4.81c-1.34,4.32-1.42,8.02-2.5,13.81c-0.07,0.38-0.13,0.78-0.16,1.15c0.99-1.18,2.49-2.83,2.82-3.16
			h0.1L150,19.6z"/>
	</g>
</g>
</svg>
